<svg xmlns="http://www.w3.org/2000/svg" height="48" viewBox="0 96 960 960" width="48"><path d="M226.001 798.923q60.923-39.461 121.968-59.961t132.076-20.5q71.032 0 131.839 20.5 60.808 20.5 123.731 59.961 42.615-52.538 62.307-106.692Q817.615 638.077 817.615 576q0-142.538-97.538-240.077Q622.538 238.385 480 238.385t-240.077 97.538Q142.385 433.462 142.385 576q0 62.077 20 116.231 20 54.154 63.616 106.692Zm253.853-188.231q-59.008 0-99.315-40.453-40.308-40.454-40.308-99.462 0-59.007 40.454-99.315 40.453-40.307 99.461-40.307 59.008 0 99.315 40.453 40.308 40.453 40.308 99.461 0 59.008-40.454 99.315-40.453 40.308-99.461 40.308Zm-.42 361.307q-80.754 0-153.39-31.243-72.637-31.243-126.378-85.577-53.742-54.334-84.703-125.828Q84.001 657.857 84.001 575.5q0-81.972 31.48-153.785 31.48-71.812 85.541-125.731 54.062-53.918 125.591-84.95 71.53-31.033 153.887-31.033 81.972 0 153.665 31.51 71.693 31.509 125.286 85.156 53.593 53.648 85.07 125.493 31.478 71.845 31.478 153.574 0 82.272-31.033 153.727-31.032 71.455-85.019 125.517-53.987 54.061-126.101 85.541-72.113 31.48-154.412 31.48Z"/></svg>